<?xml version="1.0" encoding="UTF-8" standalone="no"?>
<svg
   xmlns:dc="http://purl.org/dc/elements/1.1/"
   xmlns:cc="http://creativecommons.org/ns#"
   xmlns:rdf="http://www.w3.org/1999/02/22-rdf-syntax-ns#"
   xmlns:svg="http://www.w3.org/2000/svg"
   xmlns="http://www.w3.org/2000/svg"
   width="57.175091mm"
   height="10.87638mm"
   viewBox="0 0 57.175091 10.87638"
   version="1.1"
   id="svg8">
  <defs
     id="defs2" />
  <metadata
     id="metadata5">
    <rdf:RDF>
      <cc:Work
         rdf:about="">
        <dc:format>image/svg+xml</dc:format>
        <dc:type
           rdf:resource="http://purl.org/dc/dcmitype/StillImage" />
        <dc:title></dc:title>
      </cc:Work>
    </rdf:RDF>
  </metadata>
  <g
     id="layer1"
     transform="translate(-80.680244,-44.597502)">
    <g
       aria-label="getimg.ai"
       id="text835"
       style="font-style:normal;font-variant:normal;font-weight:normal;font-stretch:normal;font-size:10.5833px;line-height:1.25;font-family:'FiraCode Nerd Font';-inkscape-font-specification:'FiraCode Nerd Font';letter-spacing:0px;stroke-width:0.264583">
      <path
         d="m 85.901339,46.676171 c -0.678417,0.336494 -1.264569,0.586151 -2.643111,0.580724 -1.411107,0 -2.393454,0.819527 -2.393454,2.029823 0,0.738117 0.298503,1.242859 0.987774,1.601063 -0.412477,0.271367 -0.640425,0.65128 -0.640425,1.036621 0,0.586152 0.483033,1.101748 1.568499,1.101748 h 0.982348 c 0.678416,0 1.11803,0.260512 1.11803,0.727263 0,0.531879 -0.439614,0.835809 -1.633627,0.835809 -1.204868,0 -1.476235,-0.276794 -1.476235,-0.884655 h -1.090894 c 0,1.156022 0.586152,1.769311 2.556274,1.769311 1.850721,0 2.865632,-0.656708 2.865632,-1.801875 0,-0.911792 -0.868373,-1.595636 -2.089523,-1.595636 h -0.998629 c -0.575298,0 -0.716408,-0.195384 -0.716408,-0.428759 0,-0.18453 0.103119,-0.369059 0.255084,-0.472178 0.227948,0.06513 0.455896,0.09226 0.786964,0.09226 1.405679,0 2.25777,-0.8141 2.25777,-1.937558 0,-0.689271 -0.352776,-1.150594 -1.03662,-1.454525 0.672989,0 1.210295,-0.03799 1.666191,-0.189957 z m -2.632257,1.416533 c 0.743545,0 1.123458,0.390768 1.123458,1.172304 0,0.776109 -0.390768,1.210296 -1.107176,1.210296 -0.781536,0 -1.183158,-0.477606 -1.183158,-1.199441 0,-0.700126 0.390768,-1.183159 1.166876,-1.183159 z"
         style="fill:#ffffff;fill-opacity:1"
         id="path1084" />
      <path
         d="m 88.597134,50.659833 h 3.799133 c 0.01628,-0.146538 0.02714,-0.347349 0.02714,-0.542733 0,-1.780166 -0.949784,-2.865632 -2.469437,-2.865632 -1.6282,0 -2.615975,1.30256 -2.615975,3.023024 0,1.780166 0.97692,3.006743 2.762513,3.006743 0.8141,0 1.557645,-0.282221 2.089523,-0.716408 l -0.526451,-0.727263 c -0.483033,0.320213 -0.944356,0.499315 -1.503371,0.499315 -0.830382,0 -1.492517,-0.499315 -1.563072,-1.677046 z m 1.367688,-2.507428 c 0.808672,0 1.259141,0.602434 1.28085,1.677046 h -2.653966 c 0.07598,-1.145167 0.607862,-1.677046 1.373116,-1.677046 z"
         style="fill:#ffffff;fill-opacity:1"
         id="path1086" />
      <path
         d="m 98.885768,52.830766 -0.439614,-0.803245 c -0.293076,0.16282 -0.645853,0.271367 -1.063758,0.271367 -0.700126,0 -0.987774,-0.298504 -0.987774,-0.911792 v -3.099008 h 1.796447 l 0.135683,-0.884655 h -1.93213 v -1.427388 l -1.215723,0.146538 v 1.28085 h -1.275423 v 0.884655 h 1.275423 v 3.109862 c 0,1.128886 0.700126,1.883285 2.03525,1.883285 0.634998,0 1.253714,-0.184529 1.671619,-0.450469 z"
         style="fill:#ffffff;fill-opacity:1"
         id="path1088" />
      <path
         d="m 102.89498,44.597502 c -0.46675,0 -0.79239,0.331067 -0.79239,0.759827 0,0.439614 0.32564,0.770681 0.79239,0.770681 0.4776,0 0.79782,-0.331067 0.79782,-0.770681 0,-0.42876 -0.32022,-0.759827 -0.79782,-0.759827 z m 0.84666,2.805931 h -2.87649 v 0.890083 h 1.66077 v 3.951098 h -1.71504 v 0.890083 h 4.48841 v -0.890083 h -1.55765 z"
         style="fill:#ffffff;fill-opacity:1"
         id="path1090" />
      <path
         d="m 111.07238,47.251468 c -0.55359,0 -0.93893,0.298503 -1.25914,0.73269 -0.16282,-0.548161 -0.54816,-0.73269 -0.98235,-0.73269 -0.54816,0 -0.90094,0.314785 -1.22658,0.770681 l -0.0814,-0.618716 h -0.91722 v 5.731264 h 1.08547 v -4.369003 c 0.28222,-0.412478 0.55901,-0.564443 0.84666,-0.564443 0.34735,0 0.38534,0.24423 0.38534,0.841237 v 4.092209 h 0.98235 v -4.369003 c 0.28222,-0.412478 0.56987,-0.564443 0.84667,-0.564443 0.34734,0 0.38534,0.24423 0.38534,0.841237 v 4.092209 h 1.08004 V 48.87424 c 0,-1.264568 -0.49389,-1.622772 -1.14517,-1.622772 z"
         style="fill:#ffffff;fill-opacity:1"
         id="path1092" />
      <path
         d="m 118.45739,46.676171 c -0.67842,0.336494 -1.26457,0.586151 -2.64311,0.580724 -1.41111,0 -2.39346,0.819527 -2.39346,2.029823 0,0.738117 0.29851,1.242859 0.98778,1.601063 -0.41248,0.271367 -0.64043,0.65128 -0.64043,1.036621 0,0.586152 0.48304,1.101748 1.5685,1.101748 h 0.98235 c 0.67842,0 1.11803,0.260512 1.11803,0.727263 0,0.531879 -0.43961,0.835809 -1.63363,0.835809 -1.20487,0 -1.47623,-0.276794 -1.47623,-0.884655 h -1.0909 c 0,1.156022 0.58616,1.769311 2.55628,1.769311 1.85072,0 2.86563,-0.656708 2.86563,-1.801875 0,-0.911792 -0.86837,-1.595636 -2.08952,-1.595636 h -0.99863 c -0.5753,0 -0.71641,-0.195384 -0.71641,-0.428759 0,-0.18453 0.10312,-0.369059 0.25508,-0.472178 0.22795,0.06513 0.4559,0.09226 0.78697,0.09226 1.40568,0 2.25777,-0.8141 2.25777,-1.937558 0,-0.689271 -0.35278,-1.150594 -1.03662,-1.454525 0.67299,0 1.21029,-0.03799 1.66619,-0.189957 z m -2.63226,1.416533 c 0.74355,0 1.12346,0.390768 1.12346,1.172304 0,0.776109 -0.39077,1.210296 -1.10718,1.210296 -0.78153,0 -1.18315,-0.477606 -1.18315,-1.199441 0,-0.700126 0.39076,-1.183159 1.16687,-1.183159 z"
         style="fill:#ffffff;fill-opacity:1"
         id="path1094" />
      <path
         d="m 121.38113,52.228332 c 0,0.580725 0.4559,1.052903 1.04748,1.052903 0.59158,0 1.0529,-0.472178 1.0529,-1.052903 0,-0.580724 -0.46132,-1.047475 -1.0529,-1.047475 -0.59158,0 -1.04748,0.466751 -1.04748,1.047475 z"
         style="fill:#fc5378;fill-opacity:1"
         id="path1096" />
      <path
         d="m 131.03477,51.729018 v -2.556274 c 0,-1.204868 -0.74898,-1.921276 -2.28491,-1.921276 -0.58615,0 -1.29171,0.119401 -2.00811,0.390768 l 0.2985,0.857518 c 0.58615,-0.200811 1.14517,-0.298503 1.52508,-0.298503 0.80867,0 1.27542,0.298503 1.27542,1.042048 v 0.374486 h -0.81952 c -1.74761,0 -2.72453,0.678417 -2.72453,1.883285 0,1.063757 0.72184,1.780165 1.88329,1.780165 0.73269,0 1.41111,-0.265939 1.82901,-0.797818 0.20624,0.499315 0.62414,0.727263 1.18859,0.792391 l 0.27136,-0.824955 c -0.30393,-0.09769 -0.43418,-0.271367 -0.43418,-0.721835 z m -2.48572,0.656707 c -0.64586,0 -0.97692,-0.32564 -0.97692,-0.938929 0,-0.667562 0.45047,-1.069184 1.59563,-1.069184 h 0.67299 v 1.264568 c -0.29307,0.472178 -0.80324,0.743545 -1.2917,0.743545 z"
         style="fill:#ffffff;fill-opacity:1"
         id="path1098" />
      <path
         d="m 135.45103,44.597502 c -0.46675,0 -0.79239,0.331067 -0.79239,0.759827 0,0.439614 0.32564,0.770681 0.79239,0.770681 0.4776,0 0.79781,-0.331067 0.79781,-0.770681 0,-0.42876 -0.32021,-0.759827 -0.79781,-0.759827 z m 0.84666,2.805931 h -2.87649 v 0.890083 h 1.66077 v 3.951098 h -1.71504 v 0.890083 h 4.48841 v -0.890083 h -1.55765 z"
         style="fill:#ffffff;fill-opacity:1"
         id="path1100" />
    </g>
  </g>
</svg>
